<svg width="194" height="92" viewBox="0 0 194 92" fill="none" xmlns="http://www.w3.org/2000/svg">
<path d="M146.293 17.2834C144.201 17.2834 142.109 18.2613 140.926 19.9669L140.858 19.8987L141.358 17.7383H137.652L132.808 40.8664H136.56L138.402 32.02H138.47C139.516 34.4079 141.563 35.0901 144.042 35.0901C149.932 35.0901 152.752 29.4502 152.752 24.2879C152.752 20.2626 150.546 17.2834 146.293 17.2834ZM143.155 32.1565C140.494 32.1565 139.403 30.2234 139.403 27.8128C139.403 24.2879 141.176 20.2399 145.224 20.2399C147.84 20.2399 148.977 22.1956 148.977 24.6517C148.999 28.1539 147.226 32.1565 143.155 32.1565Z" fill="#CD7106"/>
<path d="M80.2531 18.5117C74.5906 18.5117 71.9526 22.4915 71.9526 27.2217C71.9526 32.4978 75.1591 35.7953 80.4351 35.7953C83.2322 35.7953 85.3471 34.9993 86.8708 33.5666C86.8935 33.0208 86.8935 32.475 87.1209 31.4971L86.5296 31.1333C86.0066 31.861 84.5967 34.1579 81.2082 34.1579C80.2076 34.1579 77.9563 34.0669 76.3644 31.4744C75.432 29.9052 75.432 27.9495 75.432 26.9716H87.8486C87.8486 25.175 87.9623 18.5117 80.2531 18.5117ZM75.432 25.5843C75.7504 22.1503 77.1831 19.8762 80.2076 19.8762C84.3465 19.8762 84.3465 24.4472 84.3465 25.5843H75.432Z" fill="#CD7106"/>
<path d="M129.26 26.0163C129.101 20.5584 124.939 16.9425 119.936 17.0789C114.66 17.2154 110.521 21.3089 110.681 26.9033C110.84 32.4522 114.956 35.9317 120.095 35.7953C125.667 35.6588 129.397 31.5653 129.26 26.0163ZM120.482 34.4535C116.548 34.5445 114.592 30.2463 114.501 26.221C114.365 21.3543 116.48 18.4889 119.436 18.4207C123.689 18.307 125.326 23.06 125.44 26.8351C125.508 30.2463 124.416 34.3626 120.482 34.4535Z" fill="#CD7106"/>
<path d="M144.997 69.1571C144.724 69.1571 144.588 68.9524 144.588 68.5431C144.588 68.1792 144.701 67.5424 144.929 66.5872L146.634 59.5601C146.839 58.7414 146.93 58.1274 146.93 57.7408C146.93 56.672 146.543 55.876 145.816 55.3302C145.065 54.7844 144.11 54.5115 142.95 54.5115C140.54 54.5115 138.243 55.6713 136.082 57.9455L135.991 57.8773L136.901 54.5115H135.991L134.013 54.6934C132.603 54.8072 131.375 54.8753 130.306 54.8753H127.782L127.441 56.1716H130.784L126.963 71.3175H132.626L135.605 59.7875C135.65 59.6056 136.014 59.1963 136.742 58.5822C137.447 57.9455 138.061 57.4907 138.561 57.1723C139.061 56.8539 139.516 56.6265 139.926 56.4673C140.335 56.3081 140.676 56.2399 140.972 56.2399C141.449 56.2399 141.699 56.49 141.699 56.9676C141.699 57.3997 141.608 57.8318 141.426 58.2866L139.448 66.1551C139.175 67.2922 139.039 68.1792 139.039 68.7932C139.039 69.5891 139.38 70.2942 140.039 70.9082C140.699 71.5222 141.563 71.8405 142.632 71.8405C143.996 71.8405 145.315 71.3175 146.611 70.2714C147.885 69.2253 148.999 67.5879 149.932 65.4047L148.635 65.1091C147.362 67.7926 146.157 69.1571 144.997 69.1571Z" fill="#CD7106"/>
<path d="M120.277 57.377C118.754 57.377 117.389 58.2411 116.138 59.924C114.456 58.2184 112.363 57.377 109.839 57.377C107.542 57.377 105.518 58.1047 103.836 59.5374C102.13 60.9701 101.289 62.7667 101.289 64.8816C101.289 67.4969 102.653 69.4527 105.405 70.749V70.8627C101.834 71.2948 100.152 73.1369 100.061 76.4116C99.9923 78.8905 101.493 80.4141 104.359 81.0964C102.494 82.1425 101.311 83.0067 100.766 83.6434C100.243 84.2802 99.9696 85.0762 99.9696 86.0086C99.9696 87.555 100.811 88.874 102.494 90.0111C104.177 91.1482 106.428 91.7167 109.293 91.7167C112.977 91.7167 115.866 90.8525 117.958 89.1469C120.027 87.4413 121.073 85.3263 121.073 82.802C121.073 80.6643 120.505 79.0042 119.345 77.8444C118.185 76.6845 116.684 76.0933 114.865 76.0933L106.041 76.4572C104.177 76.4572 103.017 76.2979 102.562 76.0023C102.107 75.6839 101.88 75.2291 101.88 74.6378C101.88 73.9555 102.335 73.3188 103.222 72.7047C104.108 72.0907 104.904 71.7951 105.587 71.7951C105.655 71.7951 106.201 71.8406 107.224 71.9315C108.27 72.0225 109.089 72.068 109.68 72.068L110.976 71.9771C112.182 71.9771 113.728 71.3858 115.638 70.1805C117.548 68.9752 118.481 67.2013 118.481 64.8589C118.481 63.4717 117.981 62.0617 116.957 60.6517C117.503 60.015 118.003 59.7193 118.435 59.7193C118.663 59.7193 118.936 60.015 119.254 60.6063C119.572 61.1976 120.05 61.4932 120.709 61.4932C121.164 61.4932 121.574 61.3112 121.937 60.9701C122.324 60.629 122.506 60.1515 122.506 59.5374C122.506 58.8552 122.301 58.3321 121.869 57.9227C121.369 57.5589 120.869 57.377 120.277 57.377ZM105.86 81.0737L108.657 80.96C109.407 80.9372 110.567 80.8918 112.136 80.778C113.705 80.6643 114.706 80.6188 115.161 80.6188C116.298 80.6188 117.321 80.8917 118.231 81.4603C119.14 82.0288 119.595 82.8248 119.595 83.8709C119.595 85.622 118.685 87.1229 116.866 88.4419C115.047 89.7382 112.75 90.375 109.976 90.375C105.587 90.375 103.404 88.7831 103.404 85.622C103.404 83.6208 104.222 82.0971 105.86 81.0737ZM113.023 69.5892C112.659 70.4306 111.59 70.84 109.794 70.84C108.043 70.84 106.974 70.4306 106.61 69.6119C106.246 68.7932 106.064 66.9739 106.064 64.1312C106.064 62.1754 106.269 60.7654 106.655 59.924C107.042 59.0826 108.088 58.6732 109.748 58.6732C110.999 58.6732 111.954 58.9688 112.614 59.5601C113.25 60.1514 113.591 61.4477 113.591 63.4717C113.569 66.701 113.387 68.7477 113.023 69.5892Z" fill="#CD7106"/>
<path d="M3.68405 57.5361V31.2696H0V29.8596H14.8726C19.1707 29.8596 22.5818 31.2014 25.0834 33.9076C27.5849 36.6139 28.8356 40.0251 28.8356 44.1413C28.8356 46.279 28.449 48.303 27.6986 50.1678C26.9254 52.0554 25.7656 53.761 24.1737 55.3074C22.5819 56.8539 20.9445 57.8318 19.2844 58.2866C17.6243 58.7187 15.5549 58.9461 13.1216 58.9461H0V57.5361H3.68405V57.5361ZM10.8475 31.2696V57.5361H13.1671C16.7147 57.5361 18.8523 56.49 19.58 54.4433C20.3077 52.3738 20.6944 50.2815 20.6944 45.2784C20.6944 41.3669 20.4669 37.137 20.0121 35.4313C19.5573 33.7257 18.8751 32.5886 17.9654 32.0656C17.0558 31.5198 15.896 31.2696 14.4633 31.2696H10.8475Z" fill="#CD7106"/>
<path d="M3.68405 57.5361V31.2696H0V29.8596H14.8726C19.1707 29.8596 22.5818 31.2014 25.0834 33.9076C27.5849 36.6139 28.8356 40.0251 28.8356 44.1413C28.8356 46.279 28.449 48.303 27.6986 50.1678C26.9254 52.0554 25.7656 53.761 24.1737 55.3074C22.5819 56.8539 20.9445 57.8318 19.2844 58.2866C17.6243 58.7187 15.5549 58.9461 13.1216 58.9461H0V57.5361H3.68405V57.5361ZM10.8475 31.2696V57.5361H13.1671C16.7147 57.5361 18.8523 56.49 19.58 54.4433C20.3077 52.3738 20.6944 50.2815 20.6944 45.2784C20.6944 41.3669 20.4669 37.137 20.0121 35.4313C19.5573 33.7257 18.8751 32.5886 17.9654 32.0656C17.0558 31.5198 15.896 31.2696 14.4633 31.2696H10.8475Z" fill="#CD7106"/>
<path d="M61.6737 57.6955C61.6737 56.0808 63.0609 54.8982 64.7892 54.8982C67.2452 54.8982 68.9963 56.854 69.7695 60.4244H71.0885V53.8748C68.8598 53.2835 67.1315 53.0562 65.5169 53.0562C60.6731 53.0562 57.08 55.8988 57.08 59.8331C57.08 66.0643 67.9957 68.7478 67.9957 73.3871C67.9957 75.3429 66.4948 76.6619 64.4026 76.6619C61.469 76.6619 59.0585 74.3423 58.3535 70.7719H56.9435L57.7167 78.322H58.9675C59.0812 78.0264 59.627 77.7762 60.1045 77.7762C60.5821 77.7762 61.0597 77.8899 61.7192 78.0263C62.4241 78.1401 63.2655 78.2538 64.4026 78.2538C69.0645 78.2538 72.7258 75.2292 72.7258 71.2949C72.7713 63.9948 61.6737 62.3347 61.6737 57.6955Z" fill="#CD7106"/>
<path d="M70.9065 11.0298V11.6893C70.0196 11.8258 69.2465 12.3033 68.5642 13.0765C68.0639 13.6678 67.3362 15.0323 66.3356 17.2155L58.0579 35.4315H57.4666L49.2343 16.4877C48.2337 14.2136 47.5742 12.8719 47.2331 12.4625C46.892 12.0759 46.2553 11.803 45.3229 11.7121V11.0525H56.8526V11.7121H56.4887C55.4426 11.7121 54.7377 11.8485 54.3738 12.0986C54.1009 12.2806 53.9645 12.5307 53.9645 12.8718C53.9645 13.0765 54.01 13.3267 54.1009 13.6224C54.1919 13.918 54.5103 14.6684 55.056 15.942L60.1728 27.8131L64.9257 17.261C65.4942 15.9874 65.8353 15.1233 65.9717 14.6912C66.1082 14.2591 66.1537 13.8952 66.1537 13.5768C66.1537 13.2357 66.0627 12.9173 65.8808 12.6444C65.6988 12.3715 65.4032 12.1669 65.0621 12.0304C64.5618 11.8257 63.8796 11.7348 63.0381 11.7348V11.0753H70.9065V11.0298Z" fill="#CD7106"/>
<path d="M50.5988 56.2173C50.667 56.24 50.7352 56.2855 50.8489 56.3537C50.9627 56.3992 51.0536 56.4675 51.1218 56.5357C51.2128 56.6039 51.281 56.6721 51.3493 56.7631C51.4175 56.8313 51.4402 56.9222 51.4402 56.9905C51.4402 57.0359 51.4175 57.0815 51.3947 57.1042C50.8035 57.9229 50.1667 58.6279 49.5072 59.2192C48.825 59.8332 48.12 60.3108 47.3923 60.7201C46.6646 61.1295 45.9141 61.4251 45.1637 61.607C44.4132 61.8117 43.6628 61.9027 42.9351 61.9027C41.6843 61.9027 40.5245 61.6525 39.4784 61.1294C38.4323 60.6064 37.5227 59.9242 36.7723 59.0373C36.0218 58.1503 35.4305 57.1042 34.9984 55.9216C34.5664 54.739 34.3617 53.4428 34.3617 52.0783C34.3617 50.964 34.4754 49.8497 34.7256 48.7353C34.9757 47.621 35.3168 46.5521 35.7944 45.5515C36.2492 44.5508 36.8177 43.6184 37.5 42.7315C38.1595 41.8673 38.9326 41.1169 39.7968 40.4574C40.6382 39.8206 41.5934 39.3203 42.6167 38.9564C43.64 38.5926 44.7316 38.4106 45.9141 38.4106C46.6873 38.4106 47.4378 38.5243 48.1428 38.729C48.8477 38.9337 49.4617 39.2294 49.9848 39.6387C50.5078 40.0253 50.9399 40.5029 51.2583 41.0941C51.5767 41.6627 51.7358 42.3222 51.7358 43.0499C51.7358 44.1188 51.3947 45.0512 50.6898 45.8244C49.9848 46.6204 49.0297 47.2798 47.8017 47.8484C46.5736 48.3942 45.1182 48.849 43.4581 49.1901C41.798 49.5312 40.0015 49.7814 38.0685 49.9633V50.2362C38.0685 51.578 38.2504 52.7833 38.5915 53.8749C38.9326 54.9892 39.4102 55.9216 40.0015 56.7176C40.5927 57.5135 41.2977 58.1276 42.1164 58.5596C42.9351 58.9917 43.7992 59.2192 44.7316 59.2192C45.6867 59.2192 46.6419 58.9918 47.6425 58.5142C48.5749 58.0139 49.5754 57.2634 50.5988 56.2173ZM47.6425 43.6867C47.6425 43.2091 47.5742 42.7543 47.3923 42.345C47.2331 41.9356 47.0057 41.5717 46.7101 41.2761C46.4144 40.9577 46.0733 40.7303 45.6867 40.5484C45.2774 40.3664 44.8453 40.2755 44.3905 40.2755C43.7083 40.2755 43.0943 40.3892 42.5257 40.6393C41.98 40.8895 41.4796 41.2079 41.0248 41.6172C40.57 42.0266 40.1834 42.5041 39.865 43.0499C39.5239 43.5957 39.251 44.1642 39.0009 44.7783C38.7507 45.3923 38.5688 46.0291 38.4323 46.6658C38.2959 47.3026 38.1822 47.9393 38.114 48.5534C39.6149 48.4624 40.9339 48.2805 42.1164 48.0076C43.2989 47.7574 44.2995 47.4391 45.0955 47.0297C45.9141 46.6204 46.5282 46.1428 46.9602 45.597C47.4378 45.0512 47.6425 44.3917 47.6425 43.6867Z" fill="#CD7106"/>
<path d="M179.609 43.0726H176.129L177.175 39.0928H184.635L183.407 44.6191C185.635 40.5938 187.886 38.7517 190.161 38.7517C191.775 38.7517 193.344 40.0025 193.344 41.8673C193.344 43.5047 192.003 44.8464 190.342 44.8464C188.819 44.8464 187.682 43.7776 187.477 42.686C186.09 43.1181 183.861 45.5742 182.906 49.4175L180.723 58.0138H175.834L179.609 43.0726Z" fill="#CD7106"/>
<path d="M105.791 0L99.6739 26.1756C99.4465 27.108 99.3328 27.8129 99.3328 28.2223C99.3328 28.7226 99.5148 28.9728 99.9014 28.9728C101.198 28.9728 102.494 27.2671 103.813 23.8104H104.836C103.153 28.6316 100.902 31.065 98.0593 31.065C97.2634 31.065 96.5812 30.7921 95.9672 30.2918C95.3759 29.7687 95.0803 29.041 95.0803 28.1314C95.0803 27.7675 95.194 27.1307 95.3986 26.1756L101.107 1.50095H97.9911L98.2185 0.341179H101.289C102.244 0.341179 103.745 0.227416 105.791 0Z" fill="#CD7106"/>
<path d="M105.746 44.4369C104.063 44.4369 101.789 46.6884 101.789 48.3485C101.789 46.6884 99.5148 44.4369 97.8547 44.4369C99.5375 44.4369 101.789 42.1855 101.789 40.5254C101.789 42.1855 104.063 44.4369 105.746 44.4369Z" fill="#CD7106"/>
<path d="M167.351 38.4559V35.7952H164.668H161.984H159.301H156.618V38.4559H153.934V41.1167V43.7774V46.4382V49.0989V51.7597H156.618V54.4205H159.301H161.984H164.645H167.329V51.7597H170.012V49.0989H167.329H164.645V51.7597H161.984H159.301V49.0989V46.4382H161.984H164.668H167.351V43.7774H170.035V41.1167V38.4559H167.351ZM164.691 41.1167V43.7774H162.007H159.324V41.1167V38.4559H162.007H164.691V41.1167Z" fill="#CD7106"/>
<path d="M88.7128 56.7175H81.6631V60.1743H84.7559V73.1369H81.6631V76.6164H91.8056V73.1369H88.7128V56.7175Z" fill="#CD7106"/>
<path d="M87.7122 51.6234C88.1897 51.1686 88.4171 50.6001 88.4171 49.9406C88.4171 49.2811 88.1897 48.7352 87.7122 48.2577C87.2346 47.8028 86.6888 47.5754 86.0293 47.5754C85.3243 47.5754 84.7558 47.8028 84.301 48.2804C83.8462 48.7353 83.6188 49.3038 83.6188 49.9178C83.6188 50.5546 83.8462 51.1231 84.3237 51.578C84.7786 52.0556 85.3471 52.283 86.0066 52.283C86.6888 52.3284 87.2573 52.0783 87.7122 51.6234Z" fill="#CD7106"/>
</svg>
